# xmcd CD database file
#
# Track frame offsets:
#	150
#	137957
#	255150
#
# Disc length: 3981 seconds
#
# Revision: 0
# Processed by: cddbd v1.5.2PL0 Copyright (c) Steve Scherf et al.
# Submitted via: CDex 1.51
#
DISCID=200f8b03
DTITLE=Richard Shulman - Sacred Music for Healing Hands, Vol. 1
DYEAR=1998
DGENRE=New Age
TTITLE0=Healing Wounds
TTITLE1=Journey into Joy
TTITLE2=Meditation for Balancing Energy Field
EXTD=YEAR: 1998
EXTT0=
EXTT1=
EXTT2=
PLAYORDER=
